# xmcd
#
# Track frame offsets: 
#        150
#        22405
#        37395
#        51578
#        65126
#        85170
#        104774
#        122313
#        143064
#
# Disc length: 2301 seconds
#
# Revision: 4
# Processed by: cddbd v1.5.2PL0 Copyright (c) Steve Scherf et al.
# Submitted via: ExactAudioCopy v0.95b4
#
DISCID=8d08fb09
DTITLE=Al Stewart - Year of the Cat
DYEAR=1976
DGENRE=Folk/Rock
TTITLE0=Al Stewart - Lord Grenville
TTITLE1=Al Stewart - On the Border
TTITLE2=Al Stewart - Mida's Shadow
TTITLE3=Al Stewart - Sand in your Shoes
TTITLE4=Al Stewart - If it doesn't comes naturally, leave it
TTITLE5=Al Stewart - Flying Sorcery
TTITLE6=Al Stewart - Broadway Hotel
TTITLE7=Al Stewart - One Stage before
TTITLE8=Al Stewart - Year of the Cat
EXTD=
EXTT0=
EXTT1=
EXTT2=
EXTT3=
EXTT4=
EXTT5=
EXTT6=
EXTT7=
EXTT8=
PLAYORDER=
